<?xml version="1.0" encoding="iso-8859-1"?>
<!-- Generator: Adobe Illustrator 19.0.0, SVG Export Plug-In . SVG Version: 6.00 Build 0)  -->
<svg version="1.1" id="Layer_1" xmlns="http://www.w3.org/2000/svg" xmlns:xlink="http://www.w3.org/1999/xlink" x="0px" y="0px"
	 viewBox="0 0 512 512" style="enable-background:new 0 0 512 512;" xml:space="preserve">
<path style="fill:#F06A8B;" d="M497.752,171.63C462.88,71.701,367.821,0,256,0C114.615,0,0,114.616,0,256
	c0,111.821,71.701,206.88,171.63,241.752L497.752,171.63z"/>
<path style="fill:#F04668;" d="M512,256c0-29.565-5.028-57.949-14.248-84.37L392.904,66.783L119.096,445.217l52.535,52.535
	C198.051,506.971,226.436,512,256,512C397.385,512,512,397.384,512,256z"/>
<g>
	<polygon style="fill:#5CEDDE;" points="119.096,89.043 119.096,155.826 256,166.957 267.13,122.435 256,77.913 	"/>
	<polygon style="fill:#5CEDDE;" points="119.096,422.957 119.096,356.174 256,345.043 267.13,389.565 256,434.087 	"/>
</g>
<g>
	<polygon style="fill:#0DC2AF;" points="392.904,89.043 256,77.913 256,166.957 392.904,155.826 	"/>
	<polygon style="fill:#0DC2AF;" points="392.904,356.174 256,345.043 256,434.087 392.904,422.957 	"/>
	<polygon style="fill:#0DC2AF;" points="119.096,400.696 256,400.696 267.13,389.565 256,378.435 119.096,378.435 	"/>
	<polygon style="fill:#0DC2AF;" points="119.096,445.217 256,445.217 267.13,434.087 256,422.957 119.096,422.957 	"/>
</g>
<g>
	<rect x="256" y="422.957" style="fill:#059866;" width="136.904" height="22.261"/>
	<rect x="256" y="378.435" style="fill:#059866;" width="136.904" height="22.261"/>
</g>
<g>
	<polygon style="fill:#0DC2AF;" points="119.096,89.043 256,89.043 267.13,77.913 256,66.783 119.096,66.783 	"/>
	<polygon style="fill:#0DC2AF;" points="119.096,133.565 256,133.565 267.13,122.435 256,111.304 119.096,111.304 	"/>
</g>
<g>
	<rect x="256" y="66.783" style="fill:#059866;" width="136.904" height="22.261"/>
	<rect x="256" y="111.304" style="fill:#059866;" width="136.904" height="22.261"/>
</g>
<polygon style="fill:#FFFFFF;" points="256,356.174 119.096,356.174 119.096,155.826 256,155.826 267.13,256 "/>
<rect x="256" y="155.826" style="fill:#EDD4B8;" width="136.904" height="200.348"/>
<path style="fill:#EDACC1;" d="M178.087,256c0,43.03,34.883,77.913,77.913,77.913L267.13,256L256,178.087
	C212.97,178.087,178.087,212.97,178.087,256z"/>
<path style="fill:#F08DAE;" d="M256,178.087v155.826c43.03,0,77.913-34.883,77.913-77.913S299.03,178.087,256,178.087z"/>
<path style="fill:#D62109;" d="M294.957,272.696c-30.687,0-55.652-24.966-55.652-55.652c0-9.22,7.475-16.696,16.696-16.696
	s16.696,7.475,16.696,16.696c0,12.275,9.986,22.261,22.261,22.261c9.22,0,16.696,7.475,16.696,16.696
	S304.177,272.696,294.957,272.696z"/>
<path style="fill:#ED3929;" d="M256,311.652c-30.687,0-55.652-24.966-55.652-55.652c0-9.22,7.475-16.696,16.696-16.696
	c9.22,0,16.696,7.475,16.696,16.696c0,12.275,9.986,22.261,22.261,22.261c9.22,0,16.696,7.475,16.696,16.696
	S265.22,311.652,256,311.652z"/>
<g>
</g>
<g>
</g>
<g>
</g>
<g>
</g>
<g>
</g>
<g>
</g>
<g>
</g>
<g>
</g>
<g>
</g>
<g>
</g>
<g>
</g>
<g>
</g>
<g>
</g>
<g>
</g>
<g>
</g>
</svg>
