<?xml version="1.0" encoding="iso-8859-1"?>
<!-- Generator: Adobe Illustrator 19.0.0, SVG Export Plug-In . SVG Version: 6.00 Build 0)  -->
<svg version="1.1" id="Layer_1" xmlns="http://www.w3.org/2000/svg" xmlns:xlink="http://www.w3.org/1999/xlink" x="0px" y="0px"
	 viewBox="0 0 512 512" style="enable-background:new 0 0 512 512;" xml:space="preserve">
<circle style="fill:#EA348B;" cx="256" cy="256" r="256"/>
<path style="fill:#C11D68;" d="M510.967,278.916L381.185,149.133L369.211,261.18L268.498,160.466l-36.345,52.722l-100.402,140.04
	l156.727,156.727C407.061,494.944,500.329,398.808,510.967,278.916z"/>
<path style="fill:#E6F3FF;" d="M276.83,359.577H146.387c-11.107,0-20.111-9.004-20.111-20.111V209.024
	c0-11.107,9.004-20.111,20.111-20.111H276.83c11.107,0,20.113,9.004,20.113,20.111v130.443
	C296.943,350.573,287.939,359.577,276.83,359.577z"/>
<path style="fill:#CFDBE6;" d="M276.83,188.911h-66.227v170.667h66.227c11.107,0,20.113-9.004,20.113-20.113V209.024
	C296.943,197.916,287.939,188.911,276.83,188.911z"/>
<rect x="126.276" y="217.35" style="fill:#4CDBC4;" width="170.667" height="113.778"/>
<rect x="210.61" y="217.35" style="fill:#26BEBE;" width="86.333" height="113.778"/>
<rect x="154.721" y="160.461" style="fill:#4CDBC4;" width="113.778" height="28.444"/>
<rect x="210.61" y="160.461" style="fill:#26BEBE;" width="57.894" height="28.444"/>
<circle style="fill:#F4E3C3;" cx="171.046" cy="274.239" r="10.29"/>
<circle style="fill:#FED8B2;" cx="252.173" cy="274.239" r="10.29"/>
<ellipse style="fill:#F4E3C3;" cx="211.609" cy="274.239" rx="42.667" ry="28.444"/>
<path style="fill:#FED8B2;" d="M211.609,245.8c-0.338,0-0.671,0.012-1.005,0.017v56.854c0.334,0.005,0.667,0.017,1.005,0.017
	c23.564,0,42.667-12.734,42.667-28.444C254.276,258.536,235.174,245.8,211.609,245.8z"/>
<g>
	<circle style="fill:#386895;" cx="188.768" cy="273.377" r="3.448"/>
	<circle style="fill:#386895;" cx="234.451" cy="273.377" r="3.448"/>
</g>
<path style="fill:#FF314F;" d="M212.02,284.065c-4.374,0-8.764-2.043-13.067-6.084c-0.348-0.324-0.365-0.871-0.038-1.217
	c0.328-0.35,0.874-0.365,1.217-0.038c4.31,4.044,8.656,5.927,12.884,5.575c6.084-0.491,9.94-5.423,9.978-5.473
	c0.291-0.379,0.833-0.446,1.208-0.159c0.378,0.29,0.448,0.831,0.159,1.208c-0.176,0.228-4.368,5.587-11.205,6.142
	C212.777,284.05,212.397,284.065,212.02,284.065z"/>
<path style="fill:#CFDBE6;" d="M368.054,278.123c-4.284,0-7.758-3.474-7.758-7.758v-56.889c0-4.284,3.474-7.758,7.758-7.758
	s7.758,3.474,7.758,7.758v56.889C375.811,274.649,372.338,278.123,368.054,278.123z"/>
<path style="fill:#B8C9D9;" d="M368.054,205.719c-0.197,0-0.381,0.043-0.574,0.059v72.289c0.193,0.014,0.378,0.059,0.574,0.059
	c4.284,0,7.758-3.474,7.758-7.758v-56.889C375.811,209.193,372.338,205.719,368.054,205.719z"/>
<path style="fill:#E6F3FF;" d="M398.222,192.503c0,16.662-13.507,30.168-30.168,30.168s-30.168-13.507-30.168-30.168
	s13.507-50.281,30.168-50.281S398.222,175.842,398.222,192.503z"/>
<path style="fill:#CFDBE6;" d="M368.054,142.222c-0.193,0-0.383,0.028-0.574,0.036v80.384c0.193,0.003,0.381,0.029,0.574,0.029
	c16.662,0,30.168-13.507,30.168-30.168S384.715,142.222,368.054,142.222z"/>
<path style="fill:#31BAFD;" d="M374.375,359.577h-12.643c-5.077,0-9.194-4.117-9.194-9.194V275.68c0-5.077,4.117-9.194,9.194-9.194
	h12.643c5.077,0,9.194,4.117,9.194,9.194v74.704C383.569,355.462,379.452,359.577,374.375,359.577z"/>
<path style="fill:#2B9ED8;" d="M374.375,266.487h-6.896v93.091h6.896c5.079,0,9.194-4.117,9.194-9.194V275.68
	C383.569,270.603,379.452,266.487,374.375,266.487z"/>
<g>
</g>
<g>
</g>
<g>
</g>
<g>
</g>
<g>
</g>
<g>
</g>
<g>
</g>
<g>
</g>
<g>
</g>
<g>
</g>
<g>
</g>
<g>
</g>
<g>
</g>
<g>
</g>
<g>
</g>
</svg>
