<?xml version="1.0" encoding="iso-8859-1"?>
<!-- Generator: Adobe Illustrator 19.0.0, SVG Export Plug-In . SVG Version: 6.00 Build 0)  -->
<svg version="1.1" id="Layer_1" xmlns="http://www.w3.org/2000/svg" xmlns:xlink="http://www.w3.org/1999/xlink" x="0px" y="0px"
	 viewBox="0 0 512 512" style="enable-background:new 0 0 512 512;" xml:space="preserve">
<circle style="fill:#006C70;" cx="256" cy="256" r="256"/>
<path style="fill:#023737;" d="M297.443,508.644c98.602-16.053,178.293-88.416,204.971-183.02L340.701,163.911l-58.904,90.691
	L144.834,117.639l-20.137,26.595l105.601,105.601L106.02,284.169l62.598,62.598l-11.985,8.028l53.76,53.76l-8.933,4.108
	L297.443,508.644z"/>
<path style="fill:#FFC61B;" d="M236.175,293.883L236.175,293.883L117.303,144.35c-6.165-8.78-4.037-20.89,4.751-27.05l0,0
	c8.788-6.158,20.909-4.034,27.074,4.746L236.175,293.883z"/>
<path style="fill:#F4A200;" d="M122.197,117.212c-0.047,0.033-0.097,0.057-0.141,0.09l0,0c-8.788,6.158-10.916,18.268-4.751,27.048
	l112.54,141.571L122.197,117.212z"/>
<path style="fill:#E5BF1F;" d="M256,397.789L256,397.789c-75.302,0-136.345-61.043-136.345-136.345l0,0h272.691l0,0
	C392.345,336.746,331.302,397.789,256,397.789z"/>
<path style="fill:#FF9811;" d="M254.852,261.444V397.76c0.384,0.003,0.764,0.029,1.148,0.029l0,0
	c75.302,0,136.345-61.043,136.345-136.345l0,0L254.852,261.444L254.852,261.444z"/>
<path style="fill:#CCF8F3;" d="M129.895,268.467c0,0-7.006-54.555,63.043-62.802c70.047-8.247,126.086-62.802,126.086-62.802
	s70.047,55.189,63.043,125.604H129.895z"/>
<path style="fill:#1FDBE2;" d="M319.023,142.865c0,0-25.765,25.059-64.171,43.777v81.825h127.214
	C389.07,198.054,319.023,142.865,319.023,142.865z"/>
<rect x="106.02" y="256.896" style="fill:#FF9811;" width="299.96" height="27.269"/>
<rect x="254.845" y="256.896" style="fill:#FF5023;" width="151.135" height="27.269"/>
<rect x="201.456" y="385.396" style="fill:#FF9811;" width="109.072" height="27.269"/>
<rect x="254.845" y="385.396" style="fill:#FF5023;" width="55.682" height="27.269"/>
<g>
</g>
<g>
</g>
<g>
</g>
<g>
</g>
<g>
</g>
<g>
</g>
<g>
</g>
<g>
</g>
<g>
</g>
<g>
</g>
<g>
</g>
<g>
</g>
<g>
</g>
<g>
</g>
<g>
</g>
</svg>
