<?xml version="1.0" encoding="iso-8859-1"?>
<!-- Generator: Adobe Illustrator 19.0.0, SVG Export Plug-In . SVG Version: 6.00 Build 0)  -->
<svg version="1.1" id="Layer_1" xmlns="http://www.w3.org/2000/svg" xmlns:xlink="http://www.w3.org/1999/xlink" x="0px" y="0px"
	 viewBox="0 0 512 512" style="enable-background:new 0 0 512 512;" xml:space="preserve">
<circle style="fill:#E5BF1F;" cx="256" cy="256" r="256"/>
<path style="fill:#FF9811;" d="M504.11,318.8L312.553,126.985l-107.336,136.27l-90.279,94.479l154.65,153.909
	C383.112,505.703,477.044,425.81,504.11,318.8z"/>
<path style="fill:#006C70;" d="M113.778,128v227.556c0,7.854,44.572,14.222,99.556,14.222s99.556-6.368,99.556-14.222V128H113.778z"
	/>
<path style="fill:#023737;" d="M212.904,128v241.776c0.145,0,0.286,0.002,0.431,0.002c54.984,0,99.556-6.368,99.556-14.222V128
	H212.904z"/>
<path style="fill:#CCF8F3;" d="M213.333,199.111c-54.984,0-99.556-6.368-99.556-14.222v113.778c0,7.854,44.572,14.222,99.556,14.222
	s99.556-6.368,99.556-14.222V184.889C312.889,192.743,268.317,199.111,213.333,199.111z"/>
<path style="fill:#1FDBE2;" d="M213.333,199.111c-0.145,0-0.286-0.002-0.431-0.002v113.778c0.145,0,0.286,0.002,0.431,0.002
	c54.984,0,99.556-6.368,99.556-14.222V184.889C312.889,192.743,268.317,199.111,213.333,199.111z"/>
<ellipse style="fill:#FF9811;" cx="213.333" cy="255.138" rx="71.111" ry="49.131"/>
<path style="fill:#FF5023;" d="M213.333,206.007c-0.145,0-0.286,0.007-0.431,0.007v98.247c0.145,0,0.286,0.007,0.431,0.007
	c39.274,0,71.111-21.997,71.111-49.131S252.607,206.007,213.333,206.007z"/>
<path style="fill:#FFFFFF;" d="M341.333,294.788v4.244h-64.646v13.06h64.646v15.019c0,17.851,14.472,32.323,32.323,32.323
	s32.323-14.472,32.323-32.323v-32.323H341.333z"/>
<path style="fill:#CFDBE6;" d="M374.375,294.788v64.61c17.517-0.386,31.604-14.679,31.604-32.287v-32.323H374.375z"/>
<ellipse style="fill:#E6F3FF;" cx="213.333" cy="128.103" rx="99.556" ry="14.222"/>
<path style="fill:#CFDBE6;" d="M213.333,113.879c-0.145,0-0.286,0.002-0.431,0.002v28.441c0.145,0,0.286,0.002,0.431,0.002
	c54.984,0,99.556-6.368,99.556-14.222S268.317,113.879,213.333,113.879z"/>
<g>
</g>
<g>
</g>
<g>
</g>
<g>
</g>
<g>
</g>
<g>
</g>
<g>
</g>
<g>
</g>
<g>
</g>
<g>
</g>
<g>
</g>
<g>
</g>
<g>
</g>
<g>
</g>
<g>
</g>
</svg>
